<svg xmlns="http://www.w3.org/2000/svg" xmlns:xlink="http://www.w3.org/1999/xlink" width="500" zoomAndPan="magnify" viewBox="0 0 375 149.999998" height="200" preserveAspectRatio="xMidYMid meet" version="1.0"><defs><g/><clipPath id="45406a6366"><path d="M 0 36.730469 L 80.613281 36.730469 L 80.613281 117.34375 L 0 117.34375 Z M 0 36.730469 " clip-rule="nonzero"/></clipPath><clipPath id="388cec0c0b"><path d="M 40.304688 36.730469 C 18.046875 36.730469 0 54.777344 0 77.035156 C 0 99.296875 18.046875 117.34375 40.304688 117.34375 C 62.566406 117.34375 80.613281 99.296875 80.613281 77.035156 C 80.613281 54.777344 62.566406 36.730469 40.304688 36.730469 Z M 40.304688 36.730469 " clip-rule="nonzero"/></clipPath><clipPath id="551ff8fe66"><path d="M 0 0.730469 L 80.613281 0.730469 L 80.613281 81.34375 L 0 81.34375 Z M 0 0.730469 " clip-rule="nonzero"/></clipPath><clipPath id="d0ff5e15c6"><path d="M 40.304688 0.730469 C 18.046875 0.730469 0 18.777344 0 41.035156 C 0 63.296875 18.046875 81.34375 40.304688 81.34375 C 62.566406 81.34375 80.613281 63.296875 80.613281 41.035156 C 80.613281 18.777344 62.566406 0.730469 40.304688 0.730469 Z M 40.304688 0.730469 " clip-rule="nonzero"/></clipPath><clipPath id="5630fc6094"><rect x="0" width="81" y="0" height="82"/></clipPath><clipPath id="359c13391c"><path d="M 11.582031 77.035156 L 68.917969 77.035156 L 68.917969 106.214844 L 11.582031 106.214844 Z M 11.582031 77.035156 " clip-rule="nonzero"/></clipPath><clipPath id="31c0af5d26"><path d="M 11.675781 77.035156 C 11.675781 92.929688 24.710938 106.214844 40.296875 106.214844 C 55.886719 106.214844 68.917969 92.929688 68.917969 77.035156 Z M 11.675781 77.035156 " clip-rule="nonzero"/></clipPath><clipPath id="c1d67d16a9"><path d="M 0.582031 0.0351562 L 57.917969 0.0351562 L 57.917969 29.214844 L 0.582031 29.214844 Z M 0.582031 0.0351562 " clip-rule="nonzero"/></clipPath><clipPath id="9c3bdf6da2"><path d="M 0.675781 0.0351562 C 0.675781 15.929688 13.710938 29.214844 29.296875 29.214844 C 44.886719 29.214844 57.917969 15.929688 57.917969 0.0351562 Z M 0.675781 0.0351562 " clip-rule="nonzero"/></clipPath><clipPath id="e9eff715ca"><rect x="0" width="58" y="0" height="30"/></clipPath><clipPath id="1ecf839abb"><path d="M 19.226562 51.1875 L 35.789062 51.1875 L 35.789062 67.75 L 19.226562 67.75 Z M 19.226562 51.1875 " clip-rule="nonzero"/></clipPath><clipPath id="6d82dcc87f"><path d="M 27.507812 51.1875 C 22.933594 51.1875 19.226562 54.894531 19.226562 59.46875 C 19.226562 64.042969 22.933594 67.75 27.507812 67.75 C 32.082031 67.75 35.789062 64.042969 35.789062 59.46875 C 35.789062 54.894531 32.082031 51.1875 27.507812 51.1875 Z M 27.507812 51.1875 " clip-rule="nonzero"/></clipPath><clipPath id="69e516719a"><path d="M 0.226562 0.1875 L 16.789062 0.1875 L 16.789062 16.75 L 0.226562 16.75 Z M 0.226562 0.1875 " clip-rule="nonzero"/></clipPath><clipPath id="8c6fec2b61"><path d="M 8.507812 0.1875 C 3.933594 0.1875 0.226562 3.894531 0.226562 8.46875 C 0.226562 13.042969 3.933594 16.75 8.507812 16.75 C 13.082031 16.75 16.789062 13.042969 16.789062 8.46875 C 16.789062 3.894531 13.082031 0.1875 8.507812 0.1875 Z M 8.507812 0.1875 " clip-rule="nonzero"/></clipPath><clipPath id="3552f06232"><rect x="0" width="17" y="0" height="17"/></clipPath><clipPath id="5510a2173d"><path d="M 45.230469 51.1875 L 61.792969 51.1875 L 61.792969 68.140625 L 45.230469 68.140625 Z M 45.230469 51.1875 " clip-rule="nonzero"/></clipPath><clipPath id="7df785bdcc"><path d="M 53.511719 51.1875 C 48.9375 51.1875 45.230469 54.96875 45.230469 59.636719 C 45.230469 64.300781 48.9375 68.085938 53.511719 68.085938 C 58.085938 68.085938 61.792969 64.300781 61.792969 59.636719 C 61.792969 54.96875 58.085938 51.1875 53.511719 51.1875 Z M 53.511719 51.1875 " clip-rule="nonzero"/></clipPath><clipPath id="4378048782"><path d="M 0.230469 0.1875 L 16.792969 0.1875 L 16.792969 17.140625 L 0.230469 17.140625 Z M 0.230469 0.1875 " clip-rule="nonzero"/></clipPath><clipPath id="8d3a54e7db"><path d="M 8.511719 0.1875 C 3.9375 0.1875 0.230469 3.96875 0.230469 8.636719 C 0.230469 13.300781 3.9375 17.085938 8.511719 17.085938 C 13.085938 17.085938 16.792969 13.300781 16.792969 8.636719 C 16.792969 3.96875 13.085938 0.1875 8.511719 0.1875 Z M 8.511719 0.1875 " clip-rule="nonzero"/></clipPath><clipPath id="f52fffde20"><rect x="0" width="17" y="0" height="18"/></clipPath><clipPath id="b1598bbfc5"><rect x="0" width="140" y="0" height="69"/></clipPath><clipPath id="ef1d1e0c5f"><rect x="0" width="30" y="0" height="34"/></clipPath><clipPath id="09905596af"><rect x="0" width="129" y="0" height="69"/></clipPath></defs><g clip-path="url(#45406a6366)"><g clip-path="url(#388cec0c0b)"><g transform="matrix(1, 0, 0, 1, 0, 36)"><g clip-path="url(#5630fc6094)"><g clip-path="url(#551ff8fe66)"><g clip-path="url(#d0ff5e15c6)"><path fill="#5271ff" d="M 0 0.730469 L 80.613281 0.730469 L 80.613281 81.34375 L 0 81.34375 Z M 0 0.730469 " fill-opacity="1" fill-rule="nonzero"/></g></g></g></g></g></g><g clip-path="url(#359c13391c)"><g clip-path="url(#31c0af5d26)"><g transform="matrix(1, 0, 0, 1, 11, 77)"><g clip-path="url(#e9eff715ca)"><g clip-path="url(#c1d67d16a9)"><g clip-path="url(#9c3bdf6da2)"><path fill="#ffffff" d="M 57.917969 29.214844 L 0.695312 29.214844 L 0.695312 0.0351562 L 57.917969 0.0351562 Z M 57.917969 29.214844 " fill-opacity="1" fill-rule="nonzero"/></g></g></g></g></g></g><g clip-path="url(#1ecf839abb)"><g clip-path="url(#6d82dcc87f)"><g transform="matrix(1, 0, 0, 1, 19, 51)"><g clip-path="url(#3552f06232)"><g clip-path="url(#69e516719a)"><g clip-path="url(#8c6fec2b61)"><path fill="#ffffff" d="M 0.226562 0.1875 L 16.789062 0.1875 L 16.789062 16.75 L 0.226562 16.75 Z M 0.226562 0.1875 " fill-opacity="1" fill-rule="nonzero"/></g></g></g></g></g></g><g clip-path="url(#5510a2173d)"><g clip-path="url(#7df785bdcc)"><g transform="matrix(1, 0, 0, 1, 45, 51)"><g clip-path="url(#f52fffde20)"><g clip-path="url(#4378048782)"><g clip-path="url(#8d3a54e7db)"><path fill="#ffffff" d="M 0.230469 0.1875 L 16.792969 0.1875 L 16.792969 17.074219 L 0.230469 17.074219 Z M 0.230469 0.1875 " fill-opacity="1" fill-rule="nonzero"/></g></g></g></g></g></g><g transform="matrix(1, 0, 0, 1, 88, 42)"><g clip-path="url(#b1598bbfc5)"><g fill="#000000" fill-opacity="1"><g transform="translate(0.866975, 51.117408)"><g><path d="M 27.015625 -33.4375 L 27.015625 -26.921875 L 18.15625 -26.921875 L 18.15625 0 L 10 0 L 10 -26.921875 L 1.140625 -26.921875 L 1.140625 -33.4375 Z M 27.015625 -33.4375 "/></g></g></g><g fill="#000000" fill-opacity="1"><g transform="translate(35.361794, 51.117408)"><g><path d="M 31.921875 -33.4375 L 31.921875 0 L 23.765625 0 L 23.765625 -13.765625 L 11.09375 -13.765625 L 11.09375 0 L 2.953125 0 L 2.953125 -33.4375 L 11.09375 -33.4375 L 11.09375 -20.34375 L 23.765625 -20.34375 L 23.765625 -33.4375 Z M 31.921875 -33.4375 "/></g></g></g><g fill="#000000" fill-opacity="1"><g transform="translate(76.526748, 51.117408)"><g><path d="M 11.09375 -33.4375 L 11.09375 0 L 2.953125 0 L 2.953125 -33.4375 Z M 11.09375 -33.4375 "/></g></g></g><g fill="#000000" fill-opacity="1"><g transform="translate(96.918959, 51.117408)"><g><path d="M 1.578125 -16.765625 C 1.578125 -20.066406 2.289062 -23.007812 3.71875 -25.59375 C 5.144531 -28.1875 7.132812 -30.207031 9.6875 -31.65625 C 12.25 -33.101562 15.148438 -33.828125 18.390625 -33.828125 C 22.359375 -33.828125 25.753906 -32.773438 28.578125 -30.671875 C 31.410156 -28.578125 33.300781 -25.722656 34.25 -22.109375 L 25.296875 -22.109375 C 24.628906 -23.503906 23.679688 -24.566406 22.453125 -25.296875 C 21.234375 -26.023438 19.847656 -26.390625 18.296875 -26.390625 C 15.785156 -26.390625 13.75 -25.515625 12.1875 -23.765625 C 10.632812 -22.023438 9.859375 -19.691406 9.859375 -16.765625 C 9.859375 -13.847656 10.632812 -11.515625 12.1875 -9.765625 C 13.75 -8.015625 15.785156 -7.140625 18.296875 -7.140625 C 19.847656 -7.140625 21.234375 -7.503906 22.453125 -8.234375 C 23.679688 -8.972656 24.628906 -10.039062 25.296875 -11.4375 L 34.25 -11.4375 C 33.300781 -7.8125 31.410156 -4.957031 28.578125 -2.875 C 25.753906 -0.800781 22.359375 0.234375 18.390625 0.234375 C 15.148438 0.234375 12.25 -0.484375 9.6875 -1.921875 C 7.132812 -3.367188 5.144531 -5.378906 3.71875 -7.953125 C 2.289062 -10.523438 1.578125 -13.460938 1.578125 -16.765625 Z M 1.578125 -16.765625 "/></g></g></g></g></g><g transform="matrix(1, 0, 0, 1, 224, 60)"><g clip-path="url(#ef1d1e0c5f)"><g fill="#a6a6a6" fill-opacity="1"><g transform="translate(0.811104, 24.629994)"><g><path d="M 14.890625 0 L 12.71875 0 L 4 -13.21875 L 4 0 L 1.828125 0 L 1.828125 -16.625 L 4 -16.625 L 12.71875 -3.421875 L 12.71875 -16.625 L 14.890625 -16.625 Z M 14.890625 0 "/></g></g></g><g fill="#a6a6a6" fill-opacity="1"><g transform="translate(20.721626, 24.629994)"><g><path d="M 2.171875 -16.59375 L 4.578125 -16.59375 L 2.28125 -11.1875 L 0.765625 -11.1875 Z M 2.171875 -16.59375 "/></g></g></g></g></g><g transform="matrix(1, 0, 0, 1, 246, 42)"><g clip-path="url(#09905596af)"><g fill="#5271ff" fill-opacity="1"><g transform="translate(0.586712, 51.117408)"><g><path d="M 24.109375 -33.203125 L 24.109375 -29.6875 L 15.046875 -29.6875 L 15.046875 0 L 10.71875 0 L 10.71875 -29.6875 L 1.625 -29.6875 L 1.625 -33.203125 Z M 24.109375 -33.203125 "/></g></g></g><g fill="#5271ff" fill-opacity="1"><g transform="translate(32.699326, 51.117408)"><g><path d="M 29.25 -33.203125 L 29.25 0 L 24.921875 0 L 24.921875 -15.046875 L 8 -15.046875 L 8 0 L 3.671875 0 L 3.671875 -33.203125 L 8 -33.203125 L 8 -18.625 L 24.921875 -18.625 L 24.921875 -33.203125 Z M 29.25 -33.203125 "/></g></g></g><g fill="#5271ff" fill-opacity="1"><g transform="translate(72.006173, 51.117408)"><g><path d="M 8 -33.203125 L 8 0 L 3.671875 0 L 3.671875 -33.203125 Z M 8 -33.203125 "/></g></g></g><g fill="#5271ff" fill-opacity="1"><g transform="translate(90.063837, 51.117408)"><g><path d="M 29.78125 0 L 25.4375 0 L 8 -26.4375 L 8 0 L 3.671875 0 L 3.671875 -33.25 L 8 -33.25 L 25.4375 -6.859375 L 25.4375 -33.25 L 29.78125 -33.25 Z M 29.78125 0 "/></g></g></g></g></g></svg>